<svg width="30" height="32" viewBox="0 0 30 32" fill="none" xmlns="http://www.w3.org/2000/svg">
<ellipse cx="14.9624" cy="15.8015" rx="14.7761" ry="15.8015" fill="white"/>
<path d="M9.84787 22.1448C9.84787 22.2575 9.81663 22.3676 9.75808 22.4613C9.69954 22.555 9.61633 22.6281 9.51897 22.6712C9.42162 22.7143 9.31449 22.7256 9.21114 22.7036C9.10779 22.6816 9.01285 22.6274 8.93834 22.5477C8.86383 22.468 8.81309 22.3665 8.79253 22.256C8.77197 22.1454 8.78252 22.0309 8.82285 21.9268C8.86317 21.8226 8.93146 21.7337 9.01908 21.6711C9.1067 21.6084 9.20971 21.575 9.31508 21.575C9.45639 21.575 9.5919 21.6351 9.69182 21.7419C9.79174 21.8488 9.84787 21.9937 9.84787 22.1448ZM11.4462 19.296C11.3409 19.296 11.2379 19.3294 11.1502 19.392C11.0626 19.4546 10.9943 19.5436 10.954 19.6477C10.9137 19.7518 10.9031 19.8664 10.9237 19.9769C10.9443 20.0874 10.995 20.1889 11.0695 20.2686C11.144 20.3483 11.239 20.4026 11.3423 20.4246C11.4457 20.4465 11.5528 20.4353 11.6501 20.3921C11.7475 20.349 11.8307 20.276 11.8892 20.1823C11.9478 20.0886 11.979 19.9784 11.979 19.8657C11.979 19.7146 11.9229 19.5697 11.823 19.4629C11.7231 19.356 11.5876 19.296 11.4462 19.296ZM7.18391 19.296C7.07854 19.296 6.97553 19.3294 6.88791 19.392C6.80029 19.4546 6.73201 19.5436 6.69168 19.6477C6.65135 19.7518 6.6408 19.8664 6.66136 19.9769C6.68192 20.0874 6.73266 20.1889 6.80717 20.2686C6.88169 20.3483 6.97662 20.4026 7.07997 20.4246C7.18332 20.4465 7.29045 20.4353 7.38781 20.3921C7.48516 20.349 7.56837 20.276 7.62692 20.1823C7.68546 20.0886 7.71671 19.9784 7.71671 19.8657C7.71671 19.7146 7.66057 19.5697 7.56066 19.4629C7.46074 19.356 7.32522 19.296 7.18391 19.296ZM9.31508 17.0169C9.20971 17.0169 9.1067 17.0503 9.01908 17.1129C8.93146 17.1755 8.86317 17.2645 8.82285 17.3686C8.78252 17.4727 8.77197 17.5873 8.79253 17.6978C8.81309 17.8084 8.86383 17.9099 8.93834 17.9896C9.01285 18.0692 9.10779 18.1235 9.21114 18.1455C9.31449 18.1675 9.42162 18.1562 9.51897 18.1131C9.61633 18.0699 9.69954 17.9969 9.75808 17.9032C9.81663 17.8095 9.84787 17.6994 9.84787 17.5867C9.84787 17.4356 9.79174 17.2906 9.69182 17.1838C9.5919 17.0769 9.45639 17.0169 9.31508 17.0169ZM22.6349 8.18555C22.6349 8.2611 22.6068 8.33356 22.5568 8.38699C22.5069 8.44041 22.4391 8.47043 22.3685 8.47043H20.4578C20.3873 8.47056 20.3198 8.50052 20.2699 8.55376L18.3546 10.6021L16.898 19.7233C16.8738 19.878 16.8101 20.0225 16.7142 20.1411C16.6182 20.2597 16.4936 20.3477 16.3539 20.3956C16.2744 20.4224 16.1915 20.4359 16.1082 20.4355C15.8968 20.4349 15.6942 20.3448 15.5447 20.1848L9.01805 13.2052C8.91393 13.0944 8.84035 12.9551 8.8054 12.8026C8.77045 12.6501 8.77548 12.4902 8.81993 12.3405C8.86439 12.1908 8.94655 12.0572 9.05739 11.9541C9.16824 11.8511 9.30348 11.7828 9.44828 11.7566L17.9729 10.199L19.8883 8.15065C19.9629 8.07057 20.0517 8.00722 20.1495 7.96429C20.2473 7.92137 20.3521 7.89973 20.4578 7.90066H22.3685C22.4391 7.90066 22.5069 7.93068 22.5568 7.9841C22.6068 8.03753 22.6349 8.10999 22.6349 8.18555ZM17.7805 10.8129L9.53952 12.3163C9.49105 12.3247 9.44569 12.3472 9.40843 12.3814C9.37117 12.4156 9.34346 12.4601 9.32838 12.51C9.31329 12.56 9.3114 12.6134 9.32292 12.6645C9.33444 12.7155 9.35893 12.7621 9.39367 12.7992L15.9204 19.7788C15.955 19.816 15.9985 19.8422 16.0461 19.8546C16.0937 19.867 16.1436 19.8651 16.1903 19.8491C16.237 19.8331 16.2786 19.8037 16.3107 19.764C16.3427 19.7244 16.3639 19.676 16.3719 19.6243L17.7805 10.8129Z" fill="#05B3F0"/>
</svg>
