<svg width="30" height="32" viewBox="0 0 30 32" fill="none" xmlns="http://www.w3.org/2000/svg">
<ellipse cx="14.7761" cy="15.8015" rx="14.7761" ry="15.8015" fill="white"/>
<path d="M12.1684 22.7146V21.8432H12.9832V20.9718H8.90893C8.26059 20.9718 7.6388 20.6963 7.18036 20.2061C6.72191 19.7158 6.46436 19.0509 6.46436 18.3575V10.5149C6.46436 9.82152 6.72191 9.15658 7.18036 8.66632C7.6388 8.17606 8.26059 7.90063 8.90893 7.90063H21.1318C21.7802 7.90063 22.402 8.17606 22.8604 8.66632C23.3189 9.15658 23.5764 9.82152 23.5764 10.5149V18.3575C23.5764 19.0509 23.3189 19.7158 22.8604 20.2061C22.402 20.6963 21.7802 20.9718 21.1318 20.9718H17.0575V21.8432H17.8724V22.7146H12.1684ZM13.7981 20.9718V21.8432H16.2427V20.9718H13.7981ZM8.90893 8.77204C8.47671 8.77204 8.06218 8.95566 7.75655 9.2825C7.45092 9.60934 7.27922 10.0526 7.27922 10.5149V18.3575C7.27922 18.8198 7.45092 19.263 7.75655 19.5899C8.06218 19.9167 8.47671 20.1003 8.90893 20.1003H21.1318C21.5641 20.1003 21.9786 19.9167 22.2842 19.5899C22.5898 19.263 22.7615 18.8198 22.7615 18.3575V10.5149C22.7615 10.0526 22.5898 9.60934 22.2842 9.2825C21.9786 8.95566 21.5641 8.77204 21.1318 8.77204H8.90893Z" fill="#05B3F0"/>
</svg>
