<svg width="30" height="32" viewBox="0 0 30 32" fill="none" xmlns="http://www.w3.org/2000/svg">
<ellipse cx="15.1492" cy="15.8015" rx="14.7761" ry="15.8015" fill="white"/>
<path d="M18.2445 17.278C17.4928 16.6067 16.5453 16.2377 15.566 16.2348C14.5867 16.2319 13.6373 16.5954 12.8821 17.2622V17.278M20.8042 14.1664C19.3259 12.8622 17.4692 12.1489 15.5528 12.1489C13.6363 12.1489 11.7796 12.8622 10.3013 14.1664M23.3275 10.9002C21.139 8.96153 18.3862 7.90063 15.5444 7.90063C12.7025 7.90063 9.94976 8.96153 7.76123 10.9002M15.5528 19.1155C15.2199 19.1155 14.8946 19.221 14.6179 19.4188C14.3411 19.6165 14.1255 19.8976 13.9981 20.2264C13.8707 20.5552 13.8374 20.917 13.9023 21.2661C13.9673 21.6152 14.1275 21.9358 14.3629 22.1875C14.5982 22.4392 14.898 22.6106 15.2245 22.68C15.5509 22.7494 15.8892 22.7138 16.1967 22.5776C16.5042 22.4414 16.767 22.2107 16.9519 21.9148C17.1368 21.6189 17.2355 21.2709 17.2355 20.915C17.2355 20.6787 17.192 20.4447 17.1074 20.2264C17.0228 20.0081 16.8989 19.8097 16.7426 19.6426C16.5864 19.4755 16.4009 19.3429 16.1967 19.2525C15.9926 19.162 15.7737 19.1155 15.5528 19.1155Z" stroke="#05B3F0" stroke-linecap="round" stroke-linejoin="round"/>
</svg>
