<svg width="128" height="128" viewBox="0 0 128 128" fill="none" xmlns="http://www.w3.org/2000/svg">
<path d="M23.1421 40.119L26.6428 36.5514C30.5475 32.6472 37.0105 32.6472 41.0498 36.8206L41.1844 37.0226C44.4832 40.3883 48.8592 42.0038 53.6391 42.475C60.1694 43.0808 66.4977 46.5811 70.6716 52.9086C75.2496 60.1785 75.1822 69.8717 70.4024 77.0742C68.5995 79.9249 66.1751 82.3308 63.3106 84.1119C60.4461 85.893 57.2158 87.0032 53.8615 87.3593C50.5071 87.7154 47.1157 87.3083 43.941 86.1683C40.7663 85.0283 37.8907 83.185 35.5294 80.7765C31.7593 77.0743 29.605 72.295 29.0664 67.3138C28.5278 62.3999 26.5755 57.7552 23.1421 54.3222C19.2374 50.4853 19.2374 44.0232 23.1421 40.119ZM51.4174 94.2393C43.5407 94.2393 36.2026 91.2102 30.7495 85.6231C26.0369 80.7765 23.0747 74.7183 22.3342 68.1215C22.1322 66.1021 21.5263 63.4769 19.9106 61.0536C15.8712 66.6406 13.4476 73.372 13.4476 80.7765C13.4476 91.816 18.8334 101.576 27.1141 107.702H114.431V100.971C114.431 76.7377 98.3411 56.207 76.3267 49.4756C82.3184 58.8995 82.1838 71.4872 76.0574 80.7765C70.6716 89.1907 61.3812 94.2393 51.4174 94.2393ZM86.0211 37.4264H94.5711C100.428 37.4264 105.545 41.5326 105.545 48.8698V53.851H113.96V47.1196C113.96 37.0226 105.006 29.3488 94.5711 29.3488H86.0211C80.4334 29.3488 75.6535 23.8291 75.6535 18.1747C75.6535 12.5204 80.4334 8.34691 86.0211 8.34691V0C75.6535 0 67.3055 8.34691 67.3055 18.7132C67.3055 29.0795 75.6535 37.4264 86.0211 37.4264ZM16.8138 37.3591C17.2177 36.686 17.7563 36.0129 18.3622 35.3397L21.8629 31.8394C22.4688 31.2336 23.1421 30.7624 23.8153 30.2912L14.3228 20.6653C15.2653 18.8479 14.9287 16.4919 13.4476 14.9437C12.4836 14.0053 11.1913 13.4803 9.84589 13.4803C8.50049 13.4803 7.20821 14.0053 6.24415 14.9437C5.30164 15.886 4.83038 17.0304 4.76306 18.242C3.55125 18.3093 2.40677 18.7805 1.46426 19.7229C-0.488087 21.675 -0.488087 24.9061 1.46426 26.9255C3.01268 28.4064 5.30163 28.743 7.18666 27.8006L16.8138 37.3591ZM110.324 16.088C113.758 12.655 115.912 8.01034 115.912 2.82718H107.497C107.497 8.41422 102.784 13.1262 97.1966 13.1262V21.4731C109.719 21.4731 119.548 31.7048 119.548 44.2251V60.5824H127.896V44.2251C127.929 38.3534 126.296 32.5927 123.186 27.612C120.075 22.6314 115.616 18.6353 110.324 16.088ZM20.1799 127.896H114.431C121.904 127.896 127.896 121.905 127.896 114.433H6.7154C6.7154 118.004 8.13398 121.428 10.6591 123.953C13.1841 126.478 16.6089 127.896 20.1799 127.896Z" fill="white"/>
</svg>
