<svg width="206" height="124" viewBox="0 0 206 124" fill="none" xmlns="http://www.w3.org/2000/svg">
<path d="M35.986 10.2612C35.986 4.58547 40.5807 0 46.2678 0H51.4086C57.0957 0 61.6904 4.58547 61.6904 10.2612V112.873C61.6904 118.549 57.0957 123.134 51.4086 123.134H46.2678C40.5807 123.134 35.986 118.549 35.986 112.873V102.612H20.5635C14.8764 102.612 10.2817 98.0266 10.2817 92.3508V71.8284C4.59465 71.8284 0 67.2429 0 61.5672C0 55.8915 4.59465 51.306 10.2817 51.306V30.7836C10.2817 25.1079 14.8764 20.5224 20.5635 20.5224H35.986V10.2612ZM169.648 10.2612V20.5224H185.071C190.758 20.5224 195.353 25.1079 195.353 30.7836V51.306C201.04 51.306 205.635 55.8915 205.635 61.5672C205.635 67.2429 201.04 71.8284 195.353 71.8284V92.3508C195.353 98.0266 190.758 102.612 185.071 102.612H169.648V112.873C169.648 118.549 165.054 123.134 159.367 123.134H154.226C148.539 123.134 143.944 118.549 143.944 112.873V10.2612C143.944 4.58547 148.539 0 154.226 0H159.367C165.054 0 169.648 4.58547 169.648 10.2612ZM133.662 51.306V71.8284H71.9721V51.306H133.662Z" fill="white"/>
</svg>
