<svg width="17" height="17" viewBox="0 0 17 17" fill="none" xmlns="http://www.w3.org/2000/svg">
<path fill-rule="evenodd" clip-rule="evenodd" d="M16.6975 1.70691C17.0879 1.31628 17.0877 0.683113 16.6971 0.292697C16.3065 -0.0977188 15.6733 -0.0975432 15.2829 0.293089L12.3623 3.2153C11.1727 2.63556 9.86604 2.24988 8.49489 2.24988C6.2691 2.24988 4.21326 3.26619 2.55225 4.47913C-0.213559 6.49886 -0.213559 10.5003 2.55225 12.52C2.65027 12.5916 2.74966 12.6624 2.85038 12.7325L0.291965 15.2923C-0.0984513 15.683 -0.0982757 16.3161 0.292357 16.7065C0.682989 17.0969 1.31615 17.0968 1.70657 16.7061L4.62735 13.7837C5.81698 14.3635 7.12368 14.7492 8.49489 14.7492C10.7207 14.7492 12.7765 13.7329 14.4375 12.52C17.2033 10.5003 17.2033 6.49886 14.4375 4.47913C14.3395 4.40753 14.24 4.33661 14.1393 4.26654L16.6975 1.70691ZM10.8471 4.73135C10.0716 4.42602 9.2814 4.24988 8.49489 4.24988C6.86848 4.24988 5.22604 5.0031 3.73173 6.09432C2.05995 7.31513 2.05995 9.68398 3.73173 10.9048C3.91576 11.0392 4.10204 11.1684 4.29026 11.2918L5.23295 10.3486C4.92325 9.80293 4.7464 9.17191 4.7464 8.49956C4.7464 6.4286 6.42431 4.74976 8.49412 4.74976C9.1661 4.74976 9.79677 4.92671 10.3421 5.23658L10.8471 4.73135ZM11.7558 6.65137L12.6994 5.70722C12.8877 5.83061 13.074 5.9599 13.258 6.09432C14.9298 7.31513 14.9298 9.68398 13.258 10.9048C11.7637 11.996 10.1213 12.7492 8.49489 12.7492C7.70833 12.7492 6.91803 12.5731 6.14254 12.2677L6.64695 11.763C7.19212 12.0726 7.82249 12.2494 8.49412 12.2494C10.5639 12.2494 12.2419 10.5705 12.2419 8.49956C12.2419 7.82756 12.0652 7.19684 11.7558 6.65137ZM8.80262 6.77694C8.70246 6.75908 8.59937 6.74976 8.49412 6.74976C7.52993 6.74976 6.7464 7.53213 6.7464 8.49956C6.7464 8.6046 6.75563 8.70745 6.77333 8.80736L7.25809 8.32232C7.33575 7.77402 7.76939 7.3402 8.31766 7.26217L8.80262 6.77694ZM9.73263 8.67563L10.2151 8.19288C10.2327 8.29244 10.2419 8.39492 10.2419 8.49956C10.2419 9.467 9.45832 10.2494 8.49412 10.2494C8.38927 10.2494 8.28655 10.2401 8.18674 10.2224L8.67281 9.73604C9.22125 9.65808 9.65504 9.22411 9.73263 8.67563Z" fill="#1E1E1E"/>
</svg>
