<svg width="175" height="175" viewBox="0 0 175 175" fill="none" xmlns="http://www.w3.org/2000/svg">
<path d="M87.5 39.7727C100.158 39.7727 112.298 44.8011 121.248 53.7517C130.199 62.7023 135.227 74.8419 135.227 87.5C135.227 105.159 125.602 120.591 111.364 128.864V143.182C111.364 145.291 110.526 147.315 109.034 148.807C107.542 150.298 105.519 151.136 103.409 151.136H71.5909C69.4812 151.136 67.458 150.298 65.9662 148.807C64.4744 147.315 63.6364 145.291 63.6364 143.182V128.864C49.3977 120.591 39.7727 105.159 39.7727 87.5C39.7727 74.8419 44.8011 62.7023 53.7517 53.7517C62.7023 44.8011 74.8419 39.7727 87.5 39.7727ZM103.409 159.091V167.045C103.409 169.155 102.571 171.178 101.079 172.67C99.5875 174.162 97.5642 175 95.4545 175H79.5455C77.4358 175 75.4125 174.162 73.9207 172.67C72.429 171.178 71.5909 169.155 71.5909 167.045V159.091H103.409ZM151.136 79.5455H175V95.4545H151.136V79.5455ZM0 79.5455H23.8636V95.4545H0V79.5455ZM95.4545 0V23.8636H79.5455V0H95.4545ZM31.1818 19.8864L48.125 36.9091L36.8295 48.125L19.8864 31.2614L31.1818 19.8864ZM126.875 36.8295L143.739 19.8864L155.114 31.2614L138.17 48.125L126.875 36.8295Z" fill="white"/>
</svg>
