<svg width="165" height="75" viewBox="0 0 165 75" fill="none" xmlns="http://www.w3.org/2000/svg">
<path d="M42.866 31.2754C45.1735 30.4056 48.1402 28.8835 51.5465 26.7091C52.6453 25.948 54.2935 24.9696 56.0516 23.3388C56.7109 22.7952 59.8974 19.9684 63.3037 14.8585C66.1605 10.6184 66.0507 9.42251 68.5779 6.48705C70.4459 4.20391 72.4237 2.68176 73.6324 1.812C76.819 -0.362418 80.7746 -0.579833 83.8513 1.1597C87.1477 3.11667 87.9168 6.48702 88.0267 7.13935C84.2908 8.22655 81.5438 10.9446 80.9944 14.0975C80.8845 14.7498 80.445 17.5765 82.5327 19.6422C84.6204 21.7079 87.6971 21.2731 88.0267 21.1644C89.6749 21.1644 92.0923 20.8382 94.6195 19.4248C96.4875 18.4463 97.5863 17.2504 100.333 13.88C101.652 12.2492 103.63 9.74862 107.366 5.07362C109.014 2.89921 110.003 1.70329 111.761 0.942245C113.958 -0.144963 116.156 0.0724651 117.035 0.181186C117.914 0.289907 119.672 0.398681 121.43 1.59461C121.98 1.92077 122.529 2.35566 122.859 2.68182C123.738 3.44286 124.507 4.09519 125.056 5.39984C125.276 5.83472 125.496 6.48699 125.606 7.24804C123.958 8.00908 120.991 9.74867 119.343 13.0103C116.705 18.4463 118.903 25.948 125.056 31.1666C120.881 29.7532 117.475 29.5358 115.277 29.6446C111.102 29.7533 107.476 30.7318 106.597 31.0579C104.179 31.819 102.641 32.58 99.1247 33.4498C97.5863 33.776 96.2677 33.9934 95.3887 34.2109C91.3231 34.6457 88.4663 33.8847 86.5983 33.0149C84.4007 32.0364 83.5216 31.0579 80.6647 30.1882C80.1153 29.9707 77.8079 29.3184 74.7312 29.3184C69.457 29.3184 65.0618 31.2754 63.5234 31.9277C61.8752 32.6887 60.7764 33.341 58.5788 33.8846C56.7109 34.3195 55.0626 34.3195 53.9638 34.3195C52.4255 34.3195 50.2279 34.2108 47.8106 33.4498C45.7229 32.7975 44.0746 31.9277 42.866 31.2754Z" fill="white"/>
<path fill-rule="evenodd" clip-rule="evenodd" d="M115.066 31.9851H115.105C117.639 31.9851 119.574 32.3538 121.096 32.7088L121.115 32.7133L121.135 32.7182C123.404 33.2918 125.182 33.8838 126.977 34.7261C128.323 35.2818 129.159 35.6893 129.78 35.9921C129.862 36.0321 129.94 36.0703 130.015 36.1068C130.617 36.3982 130.973 36.5558 131.611 36.7276C133.022 37.1083 134.731 37.3008 136.53 37.1093C137.737 36.9808 138.819 37.8663 138.946 39.0871C139.074 40.3079 138.198 41.4017 136.99 41.5302C134.612 41.7832 132.363 41.5312 130.478 41.0228C129.466 40.7501 128.833 40.4632 128.115 40.1156C128.036 40.0771 127.955 40.0376 127.872 39.997C127.256 39.6971 126.513 39.3349 125.268 38.8221L125.217 38.8012L125.168 38.7779C123.687 38.079 122.184 37.5664 120.088 37.0357C118.764 36.7275 117.198 36.4341 115.145 36.4304C112.584 36.5292 110.641 37.233 109.125 37.7824C109.058 37.8064 108.993 37.8301 108.928 37.8535C107.483 38.3898 106.888 38.775 106.291 39.1614L106.269 39.1753C105.521 39.6595 104.723 40.1761 103.073 40.7534L103.061 40.7575L103.049 40.7616C103.033 40.7669 103.016 40.7727 102.998 40.7789C102.179 41.0556 99.0951 42.0981 94.7693 42.0981C91.4112 42.0981 88.789 41.3087 87.2257 40.8381C87.0306 40.7794 86.8519 40.7256 86.6904 40.6789L86.6765 40.6749L86.6627 40.6707C84.8318 40.1154 83.8982 39.631 83.0415 39.1751L82.9818 39.1434C82.2784 38.7688 81.6459 38.4321 80.2976 38.007C80.0431 37.9354 79.7877 37.8612 79.5302 37.7865C77.6748 37.2482 75.7102 36.6782 73.1915 36.7624C70.5894 36.8605 68.6697 37.5296 66.4757 38.3059L66.461 38.3111C64.6814 38.9266 63.714 39.4385 62.8149 39.9142C62.7437 39.9519 62.6728 39.9894 62.602 40.0267C61.5321 40.5904 60.4816 41.1037 58.6209 41.494C55.7908 42.1144 53.3492 41.9863 51.8514 41.8701C48.322 41.6308 45.5934 40.8019 43.9983 40.1848C42.6377 39.7042 41.9246 39.3205 41.2643 38.9652C41.2452 38.9549 41.2261 38.9447 41.207 38.9344C40.6285 38.6233 40.049 38.3155 38.7585 37.8639C37.421 37.3958 36.3355 37.117 35.5427 36.9567C35.146 36.8765 34.8272 36.8269 34.5908 36.7979C34.4727 36.7834 34.3789 36.7745 34.3092 36.7694C34.2746 36.7669 34.2478 36.7654 34.2285 36.7646C34.2091 36.7638 34.2005 36.7638 34.2012 36.7638H34.0644L33.9286 36.7466C32.4108 36.5548 31.0618 36.6477 30.0231 36.7527C28.8149 36.8749 27.7376 35.9837 27.6168 34.7623C27.496 33.5408 28.3774 32.4517 29.5856 32.3295C30.7227 32.2146 32.4067 32.088 34.3568 32.3212C35.3142 32.3533 37.3659 32.6725 40.1968 33.6632C41.7643 34.2118 42.5588 34.6263 43.2719 35.0098C43.2958 35.0227 43.3195 35.0354 43.3431 35.0481C43.9207 35.3591 44.4135 35.6244 45.4762 35.9981L45.5099 36.0099L45.5432 36.0229C46.8093 36.5152 49.1194 37.2308 52.1552 37.4354L52.1664 37.4362L52.1776 37.4371C53.5368 37.5428 55.4828 37.6346 57.6976 37.1479L57.7084 37.1455L57.7192 37.1432C59.0396 36.8671 59.6908 36.5478 60.57 36.0846C60.6391 36.0482 60.7094 36.011 60.7811 35.9731C61.7327 35.4694 62.9364 34.8324 65.0304 34.1077C65.0328 34.1068 65.0353 34.106 65.0378 34.1051L65.0854 34.0882C67.2716 33.3146 69.7327 32.4436 73.0329 32.32L73.0411 32.3197C76.3022 32.2098 78.9361 32.9821 80.7875 33.5249C81.0424 33.5996 81.2824 33.67 81.5073 33.7332L81.539 33.7421L81.5705 33.752C83.3249 34.3024 84.2299 34.784 85.0531 35.2221L85.0893 35.2414C85.7969 35.6179 86.4553 35.9659 87.9129 36.4089C88.0973 36.4623 88.2893 36.5196 88.4892 36.5793C90.0467 37.0443 92.0849 37.6528 94.7693 37.6528C98.3847 37.6528 100.937 36.7887 101.609 36.5613C101.622 36.5569 101.634 36.5527 101.646 36.5487C102.796 36.1452 103.269 35.8392 103.86 35.4564L103.917 35.4196C104.691 34.9184 105.579 34.3602 107.423 33.6768L107.432 33.6735L107.44 33.6704C107.521 33.6415 107.604 33.6113 107.689 33.5801C109.241 33.0164 111.75 32.1048 115.027 31.9865L115.066 31.9851Z" fill="white"/>
<path fill-rule="evenodd" clip-rule="evenodd" d="M115.015 40.2166H115.054C117.593 40.2166 119.533 40.5768 121.058 40.9235L121.077 40.9279L121.096 40.9327C123.371 41.4929 125.153 42.0711 126.952 42.8938C128.3 43.4366 129.138 43.8346 129.76 44.1304C129.842 44.1695 129.921 44.2068 129.996 44.2424C130.599 44.5271 130.956 44.681 131.595 44.8488C133.01 45.2206 134.722 45.4087 136.525 45.2217C137.735 45.0961 138.819 45.961 138.947 47.1534C139.074 48.3458 138.196 49.4141 136.986 49.5397C134.603 49.7868 132.349 49.5407 130.46 49.0441C129.446 48.7777 128.811 48.4975 128.092 48.158C128.013 48.1204 127.932 48.0818 127.848 48.0422C127.231 47.7492 126.487 47.3955 125.239 46.8946L125.188 46.8742L125.138 46.8514C123.654 46.1688 122.148 45.668 120.047 45.1497C118.72 44.8487 117.152 44.5621 115.094 44.5584C112.528 44.655 110.581 45.3423 109.061 45.8789C108.995 45.9024 108.929 45.9256 108.864 45.9485C107.416 46.4724 106.819 46.8486 106.221 47.226L106.199 47.2395C105.449 47.7125 104.649 48.217 102.996 48.7808L102.984 48.7849L102.972 48.7889C102.956 48.7941 102.939 48.7998 102.921 48.8058C102.1 49.0762 99.0097 50.0943 94.6748 50.0943C91.3095 50.0943 88.6818 49.3233 87.1152 48.8637C86.9196 48.8063 86.7406 48.7538 86.5787 48.7082L86.5648 48.7043L86.5509 48.7002C84.7161 48.1578 83.7805 47.6846 82.9219 47.2393L82.8621 47.2083C82.1571 46.8425 81.5233 46.5136 80.1721 46.0984C79.9171 46.0284 79.6613 45.9561 79.4033 45.8831C77.544 45.3573 75.575 44.8005 73.0508 44.8828C70.4431 44.9786 68.5193 45.6321 66.3206 46.3904L66.3059 46.3955C64.5225 46.9967 63.553 47.4966 62.6521 47.9613C62.5806 47.9981 62.5096 48.0347 62.4387 48.0711C61.3665 48.6217 60.3138 49.1231 58.4491 49.5043C55.6129 50.1102 53.1661 49.9851 51.665 49.8716C48.128 49.638 45.3936 48.8282 43.7951 48.2255C42.4316 47.7561 41.717 47.3813 41.0553 47.0343C41.0361 47.0243 41.017 47.0142 40.9979 47.0042C40.4182 46.7004 39.8374 46.3998 38.5441 45.9587C37.2038 45.5015 36.1159 45.2292 35.3214 45.0726C34.9239 44.9943 34.6044 44.9458 34.3675 44.9175C34.2491 44.9033 34.1551 44.8946 34.0853 44.8896C34.0506 44.8871 34.0237 44.8857 34.0044 44.8849C33.9858 44.8841 33.977 44.8841 33.977 44.8841H33.84L33.7039 44.8673C32.1828 44.68 30.8309 44.7708 29.79 44.8733C28.5793 44.9926 27.4996 44.1222 27.3785 42.9292C27.2575 41.7362 28.1408 40.6723 29.3516 40.553C30.491 40.4407 32.1787 40.3171 34.1329 40.5449C35.0924 40.5762 37.1486 40.888 39.9855 41.8557C41.5564 42.3915 42.3526 42.7964 43.0672 43.1709C43.0911 43.1835 43.1149 43.196 43.1385 43.2084C43.7173 43.512 44.2112 43.7712 45.2762 44.1362L45.31 44.1477L45.3433 44.1604C46.6122 44.6412 48.9272 45.3403 51.9695 45.5402L51.9807 45.5409L51.9919 45.5417C53.354 45.645 55.3043 45.7347 57.5238 45.2593L57.5346 45.257L57.5455 45.2547C58.8686 44.985 59.5213 44.6732 60.4023 44.2208C60.4716 44.1852 60.542 44.1489 60.6138 44.1118C61.5675 43.6199 62.7738 42.9977 64.8722 42.2898C64.8747 42.289 64.8772 42.2881 64.8796 42.2873L64.9273 42.2708C67.1182 41.5151 69.5846 40.6644 72.8919 40.5437L72.9 40.5434C76.1683 40.4361 78.8078 41.1904 80.6632 41.7206C80.9186 41.7936 81.1591 41.8623 81.3844 41.9239L81.4162 41.9327L81.4477 41.9423C83.2059 42.48 84.1128 42.9504 84.9378 43.3783L84.9741 43.3972C85.6832 43.7649 86.3431 44.1048 87.8038 44.5375C87.9886 44.5896 88.1811 44.6456 88.3814 44.704C89.9422 45.1581 91.9847 45.7525 94.6748 45.7525C98.2978 45.7525 100.856 44.9085 101.529 44.6863C101.542 44.682 101.555 44.6779 101.566 44.674C102.719 44.2799 103.193 43.981 103.785 43.6071L103.842 43.5711C104.618 43.0816 105.508 42.5364 107.356 41.8689L107.364 41.8658L107.373 41.8627C107.453 41.8344 107.537 41.8049 107.623 41.7744C109.178 41.2238 111.692 40.3335 114.976 40.2179L115.015 40.2166Z" fill="white"/>
<path d="M0 74.5872L8.26676 55.1575H8.42372L16.6643 74.5872H13.7605L7.58658 59.0795L9.39167 57.9184L2.48526 74.5872H0ZM4.83972 67.5172H11.8769L12.7141 69.6846H4.10722L4.83972 67.5172Z" fill="white"/>
<path d="M20.6191 65.8658C20.0784 65.8658 19.6162 65.7023 19.2326 65.3755C18.8489 65.0487 18.657 64.5584 18.657 63.9047V62.8984H20.5144V63.2338C20.5144 63.5091 20.5842 63.6897 20.7237 63.7757C20.8632 63.8617 21.09 63.9047 21.4039 63.9047H28.3365L21.8486 73.1164L21.3777 72.6004H28.258V74.5872H18.2385L24.8571 65.1949L25.2757 65.8658H20.6191Z" fill="white"/>
<path d="M35.1615 75.0001C34.1849 75.0001 33.3739 74.7076 32.7286 74.1228C32.1007 73.5207 31.7694 72.7466 31.7345 71.8005V63.9047H34.1674V70.949C34.2023 71.5339 34.368 72.0069 34.6645 72.3682C34.9784 72.7294 35.4667 72.9186 36.1295 72.9358C36.7399 72.9358 37.2805 72.7638 37.7514 72.4198C38.2398 72.0585 38.6322 71.5769 38.9286 70.9748C39.2251 70.3555 39.3734 69.6588 39.3734 68.8847V63.9047H41.8063V74.5872H39.5827L39.3734 71.9553L39.5042 72.4198C39.2949 72.9186 38.9723 73.3659 38.5362 73.7615C38.1177 74.14 37.6206 74.441 37.0451 74.6646C36.4696 74.8883 35.8417 75.0001 35.1615 75.0001Z" fill="white"/>
<path d="M48.1869 63.9047L48.4223 67.0011L48.2915 66.5883C48.5705 65.9346 48.9717 65.3841 49.4949 64.9369C50.0355 64.4724 50.5936 64.1198 51.1692 63.8789C51.7621 63.6209 52.2766 63.4919 52.7126 63.4919L52.5818 65.8658C51.7621 65.8142 51.0384 65.969 50.4105 66.3302C49.8001 66.6915 49.3118 67.1731 48.9455 67.7752C48.5967 68.3773 48.4223 69.0223 48.4223 69.7104V74.5872H46.0155V63.9047H48.1869Z" fill="white"/>
<path d="M60.4143 74.8453C59.176 74.8453 58.1122 74.6044 57.2227 74.1228C56.3332 73.6239 55.6443 72.953 55.156 72.1101C54.6851 71.25 54.4497 70.2695 54.4497 69.1686C54.4497 68.1192 54.72 67.1645 55.2606 66.3044C55.8013 65.4443 56.5251 64.7562 57.432 64.2402C58.3389 63.7241 59.3504 63.4661 60.4666 63.4661C61.8967 63.4661 63.0827 63.8789 64.0245 64.7046C64.9662 65.5303 65.6028 66.6657 65.9342 68.1106L57.0134 71.207L56.4379 69.7878L63.7629 67.1559L63.2396 67.4914C63.0304 66.9237 62.6815 66.4334 62.1932 66.0206C61.7049 65.5905 61.0683 65.3755 60.2835 65.3755C59.6208 65.3755 59.0278 65.5389 58.5046 65.8658C57.9814 66.1754 57.5715 66.6055 57.275 67.1559C56.9785 67.7064 56.8303 68.3343 56.8303 69.0395C56.8303 69.7792 56.9873 70.4329 57.3012 71.0006C57.6151 71.5511 58.0424 71.9897 58.583 72.3165C59.1411 72.6262 59.769 72.781 60.4666 72.781C60.9375 72.781 61.391 72.695 61.827 72.523C62.2804 72.351 62.699 72.1273 63.0827 71.8521L64.2076 73.6325C63.6669 73.9937 63.0565 74.2862 62.3763 74.5098C61.7136 74.7334 61.0596 74.8453 60.4143 74.8453Z" fill="white"/>
<path d="M92.8257 55.9316V74.5872H90.3143V66.4076H80.3994V74.5872H77.8618V55.9316H80.3994V64.0337H90.3143V55.9316H92.8257Z" fill="white"/>
<path d="M96.7308 69.1428C96.7308 68.0762 96.9837 67.1129 97.4894 66.2528C98.0126 65.3927 98.7277 64.7132 99.6346 64.2144C100.541 63.7155 101.57 63.4661 102.722 63.4661C103.907 63.4661 104.945 63.7155 105.835 64.2144C106.724 64.7132 107.413 65.3927 107.901 66.2528C108.39 67.1129 108.634 68.0762 108.634 69.1428C108.634 70.2093 108.39 71.1812 107.901 72.0585C107.413 72.9186 106.715 73.5981 105.809 74.097C104.919 74.5958 103.881 74.8453 102.695 74.8453C101.544 74.8453 100.515 74.613 99.6084 74.1486C98.719 73.6669 98.0126 73.0046 97.4894 72.1617C96.9837 71.3016 96.7308 70.2953 96.7308 69.1428ZM99.1637 69.1686C99.1637 69.8566 99.3207 70.4845 99.6346 71.0522C99.9485 71.6027 100.367 72.0413 100.89 72.3682C101.431 72.695 102.024 72.8584 102.669 72.8584C103.349 72.8584 103.951 72.695 104.474 72.3682C105.015 72.0413 105.434 71.6027 105.73 71.0522C106.027 70.4845 106.175 69.8566 106.175 69.1686C106.175 68.4805 106.027 67.8612 105.73 67.3107C105.434 66.7431 105.015 66.2958 104.474 65.969C103.951 65.6249 103.349 65.4529 102.669 65.4529C102.006 65.4529 101.405 65.6249 100.864 65.969C100.341 66.313 99.9224 66.7689 99.6084 67.3365C99.3119 67.887 99.1637 68.4977 99.1637 69.1686Z" fill="white"/>
<path d="M114.099 63.9047L114.335 67.0011L114.204 66.5883C114.483 65.9346 114.884 65.3841 115.407 64.9369C115.948 64.4724 116.506 64.1198 117.082 63.8789C117.675 63.6209 118.189 63.4919 118.625 63.4919L118.494 65.8658C117.675 65.8142 116.951 65.969 116.323 66.3302C115.713 66.6915 115.224 67.1731 114.858 67.7752C114.509 68.3773 114.335 69.0223 114.335 69.7104V74.5872H111.928V63.9047H114.099Z" fill="white"/>
<path d="M121.764 63.9047H124.197V74.5872H121.764V63.9047ZM121.581 60.0343C121.581 59.6558 121.729 59.3376 122.025 59.0795C122.339 58.8215 122.679 58.6925 123.046 58.6925C123.412 58.6925 123.735 58.8215 124.014 59.0795C124.31 59.3376 124.458 59.6558 124.458 60.0343C124.458 60.4299 124.31 60.7567 124.014 61.0148C123.735 61.2556 123.412 61.376 123.046 61.376C122.679 61.376 122.339 61.247 122.025 60.989C121.729 60.7309 121.581 60.4127 121.581 60.0343Z" fill="white"/>
<path d="M129.4 65.8658C128.86 65.8658 128.397 65.7023 128.014 65.3755C127.63 65.0487 127.438 64.5584 127.438 63.9047V62.8984H129.296V63.2338C129.296 63.5091 129.365 63.6897 129.505 63.7757C129.644 63.8617 129.871 63.9047 130.185 63.9047H137.118L130.63 73.1164L130.159 72.6004H137.039V74.5872H127.02L133.638 65.1949L134.057 65.8658H129.4Z" fill="white"/>
<path d="M139.574 69.1428C139.574 68.0762 139.827 67.1129 140.333 66.2528C140.856 65.3927 141.571 64.7132 142.478 64.2144C143.385 63.7155 144.414 63.4661 145.565 63.4661C146.751 63.4661 147.788 63.7155 148.678 64.2144C149.567 64.7132 150.256 65.3927 150.744 66.2528C151.233 67.1129 151.477 68.0762 151.477 69.1428C151.477 70.2093 151.233 71.1812 150.744 72.0585C150.256 72.9186 149.559 73.5981 148.652 74.097C147.762 74.5958 146.724 74.8453 145.539 74.8453C144.387 74.8453 143.358 74.613 142.452 74.1486C141.562 73.6669 140.856 73.0046 140.333 72.1617C139.827 71.3016 139.574 70.2953 139.574 69.1428ZM142.007 69.1686C142.007 69.8566 142.164 70.4845 142.478 71.0522C142.792 71.6027 143.21 72.0413 143.733 72.3682C144.274 72.695 144.867 72.8584 145.512 72.8584C146.193 72.8584 146.794 72.695 147.317 72.3682C147.858 72.0413 148.277 71.6027 148.573 71.0522C148.87 70.4845 149.018 69.8566 149.018 69.1686C149.018 68.4805 148.87 67.8612 148.573 67.3107C148.277 66.7431 147.858 66.2958 147.317 65.969C146.794 65.6249 146.193 65.4529 145.512 65.4529C144.85 65.4529 144.248 65.6249 143.707 65.969C143.184 66.313 142.766 66.7689 142.452 67.3365C142.155 67.887 142.007 68.4977 142.007 69.1686Z" fill="white"/>
<path d="M156.943 63.9047L157.152 66.5108L157.047 66.098C157.396 65.3067 157.963 64.6788 158.748 64.2144C159.532 63.7327 160.439 63.4919 161.468 63.4919C162.497 63.4919 163.334 63.7929 163.98 64.395C164.642 64.9799 164.983 65.7454 165 66.6915V74.5872H162.541V67.543C162.523 66.9581 162.349 66.485 162.018 66.1238C161.704 65.7454 161.207 65.5561 160.527 65.5561C159.899 65.5561 159.332 65.7281 158.826 66.0722C158.32 66.4162 157.919 66.8893 157.623 67.4914C157.344 68.0934 157.204 68.7901 157.204 69.5814V74.5872H154.771V63.9047H156.943Z" fill="white"/>
</svg>
