<svg width="123" height="122" viewBox="0 0 123 122" fill="none" xmlns="http://www.w3.org/2000/svg">
<path fill-rule="evenodd" clip-rule="evenodd" d="M57.1216 1.03267C59.8381 0.302912 62.7426 0.30291 65.459 1.03267L86.7395 6.74966C97.8413 9.73217 108.385 14.1172 118.035 19.7655C125.542 24.1588 121.984 34.3929 112.95 34.3929H9.63048C0.596891 34.3929 -2.96108 24.1588 4.54513 19.7655C14.1958 14.1172 24.7393 9.73217 35.8412 6.74966L57.1216 1.03267ZM62.3181 9.96514C61.6484 9.78522 60.9323 9.78522 60.2625 9.96514L38.9821 15.6821C30.566 17.9431 22.5025 21.0894 14.9673 25.0481H107.613C100.078 21.0894 92.0146 17.9431 83.5986 15.6821L62.3181 9.96514Z" fill="white"/>
<path d="M6.0532 116.939C6.0532 114.359 8.44648 112.267 11.3987 112.267H111.182C114.134 112.267 116.527 114.359 116.527 116.939C116.527 119.52 114.134 121.611 111.182 121.611H11.3987C8.44648 121.611 6.0532 119.52 6.0532 116.939Z" fill="white"/>
<path d="M20.308 92.0195C20.308 94.6 22.7012 96.6919 25.6535 96.6919C28.6057 96.6919 30.999 94.6 30.999 92.0195L30.999 54.6401C30.999 52.0596 28.6057 49.9677 25.6535 49.9677C22.7012 49.9677 20.3079 52.0596 20.3079 54.6401L20.308 92.0195Z" fill="white"/>
<path d="M61.2903 96.6919C58.3381 96.6919 55.9448 94.6 55.9448 92.0195L55.9448 54.6401C55.9448 52.0596 58.3381 49.9677 61.2903 49.9677C64.2426 49.9677 66.6359 52.0596 66.6359 54.6401V92.0195C66.6359 94.6 64.2426 96.6919 61.2903 96.6919Z" fill="white"/>
<path d="M91.5817 92.0195C91.5817 94.6 93.975 96.6919 96.9272 96.6919C99.8795 96.6919 102.273 94.6 102.273 92.0195V54.6401C102.273 52.0596 99.8795 49.9677 96.9272 49.9677C93.975 49.9677 91.5817 52.0596 91.5817 54.6401V92.0195Z" fill="white"/>
</svg>
