<svg width="169" height="125" viewBox="0 0 169 125" fill="none" xmlns="http://www.w3.org/2000/svg">
<path d="M113.624 0.714355C112.365 0.714355 108.736 2.37071 108.736 2.37071L71.4041 21.3005C66.4258 23.2723 64.4592 31.2273 67.4484 35.2048L78.349 51.0697L33.7355 73.9319L56.1883 90.8335L84.3049 73.9319L112.399 90.8335L123.659 79.5432L89.9462 34.4724L118.681 17.2328C124.614 14.2356 123.659 9.30035 123.659 6.30314C123.614 3.93692 119.614 0.714355 113.624 0.714355ZM137.684 34.5175C135.1 34.5153 132.542 35.0232 130.155 36.0124C127.767 37.0016 125.597 38.4526 123.769 40.2826C121.941 42.1126 120.49 44.2857 119.499 46.6779C118.509 49.0701 117.998 51.6345 117.995 54.2247C117.993 56.8149 118.5 59.3802 119.486 61.7741C120.473 64.168 121.92 66.3436 123.745 68.1767C125.57 70.0098 127.738 71.4645 130.123 72.4578C132.509 73.4511 135.067 73.9635 137.65 73.9657C142.867 73.9702 147.873 71.8964 151.565 68.2006C155.257 64.5048 157.334 59.4897 157.338 54.2585C157.343 49.0273 155.275 44.0086 151.589 40.3065C147.903 36.6043 142.901 34.522 137.684 34.5175ZM28.0941 90.856L0 107.758V124.659L28.0941 107.758L56.1883 124.659L84.3049 107.758L112.399 124.659L134.852 107.758L168.565 124.659V107.758L134.852 90.856L112.399 107.758L84.3049 90.856L56.1883 107.758L28.0941 90.856Z" fill="white"/>
</svg>
