<svg width="167" height="136" viewBox="0 0 167 136" fill="none" xmlns="http://www.w3.org/2000/svg">
<path d="M50.9435 91.4358C55.1239 86.9585 60.1786 83.3842 65.7956 80.9334C71.4127 78.4825 77.4708 77.2065 83.6005 77.1851C89.7302 77.1638 95.8 78.3972 101.434 80.8089C107.068 83.2205 112.149 86.7593 116.361 91.2072M31.2559 64.1362C37.9447 56.9726 46.0321 51.2537 55.0194 47.3323C64.0066 43.4109 73.7023 41.37 83.5098 41.3358C93.3173 41.3017 103.027 43.2746 112.042 47.1333C121.056 50.9919 129.185 56.6542 135.924 63.771M5 39.6865C15.0331 28.9412 27.1643 20.3628 40.6452 14.4807C54.1261 8.59865 68.6718 5.53729 83.383 5.48601C98.0942 5.43472 112.659 8.39445 126.181 14.1824C139.703 19.9704 151.892 28.4641 162 39.1392M83.759 130.96C78.8028 130.96 74.785 126.947 74.785 121.997C74.785 117.048 78.8028 113.035 83.759 113.035C88.7152 113.035 92.733 117.048 92.733 121.997C92.733 126.947 88.7152 130.96 83.759 130.96Z" stroke="white" stroke-width="10" stroke-linecap="round" stroke-linejoin="round"/>
</svg>
